# xmcd CD database file
#
# Track frame offsets:
#	150
#	17215
#	32656
#	52134
#	65665
#	83756
#	108197
#	120126
#	134016
#	150304
#	163750
#	177013
#	191666
#	206993
#	222470
#
# Disc length: 3181 seconds
#
# Revision: 0
# Processed by: cddbd v1.4PL0 Copyright (c) Steve Scherf et al.
# Submitted via: CDex 1.40Release
#
DISCID=d30c6b0f
DTITLE=Sampler - Country Line Dance
DYEAR=1995
DGENRE=Country
TTITLE0=The feel good song
TTITLE1=Leave my lovin' man alone
TTITLE2=You're the reason
TTITLE3=That's it baby
TTITLE4=Memories
TTITLE5=Those carefree early days
TTITLE6=St. Patricks Day
TTITLE7=Girls night out
TTITLE8=Brown eyed mystery lady
TTITLE9=Gamblin' fever
TTITLE10=Line dancing with the devil
TTITLE11=Everybody loves a cowboy
TTITLE12=I don't like it
TTITLE13=Cold blooded woman
TTITLE14=I'ts a crime
EXTD=YEAR: 1995 ID3G: 2
EXTT0=
EXTT1=
EXTT2=
EXTT3=
EXTT4=
EXTT5=
EXTT6=
EXTT7=
EXTT8=
EXTT9=
EXTT10=
EXTT11=
EXTT12=
EXTT13=
EXTT14=
PLAYORDER=
